<svg xmlns="http://www.w3.org/2000/svg" viewBox="0 0 48 48">
  <rect width="48" height="48" rx="10" fill="#3c4a78"/>
  <path d="M18.5 22 C11 26.5 9 33.5 11.4 39.8 C13.6 44.7 18.6 45 24 45 C29.4 45 34.4 44.7 36.6 39.8 C39 33.5 37 26.5 29.5 22 Z" fill="#c6ccde" stroke="#fbfcfa" stroke-width="1.2"/>
  <path d="M14.5 23 C13.6 25.4 13.2 27.4 14 29.4" fill="none" stroke="#fbfcfa" stroke-width="1.4" stroke-linecap="round"/>
  <path d="M33.5 23 C34.4 25.4 34.8 27.4 34 29.4" fill="none" stroke="#fbfcfa" stroke-width="1.4" stroke-linecap="round"/>
  <rect x="16.5" y="18.5" width="15" height="5.4" rx="2.7" fill="#fbfcfa" stroke="#fbfcfa" stroke-width="0.8"/>
  <path d="M19 21.2 C21.5 22.1 26.5 22.1 29 21.2" fill="none" stroke="#3c4a78" stroke-width="1.2" stroke-linecap="round"/>
  <circle cx="24" cy="21.2" r="1.7" fill="#3c4a78"/>
</svg>
